<svg width="57" height="56" viewBox="0 0 57 56" fill="none" xmlns="http://www.w3.org/2000/svg">
<path d="M53.1835 24.9667V51.3333C53.1835 52.5778 52.7656 53.6667 51.9297 54.6C51.0939 55.5333 50.1187 56 49.0042 56H7.14102C6.02653 56 5.05134 55.5333 4.21547 54.6C3.3796 53.6667 2.96167 52.5778 2.96167 51.3333V24.9667C1.66143 23.7222 0.802336 22.1926 0.384401 20.3778C-0.033534 18.563 0.0129031 16.7481 0.523713 14.9333L3.51892 4.43333C3.89041 3.03333 4.54053 1.94444 5.46928 1.16667C6.39802 0.388889 7.46608 0 8.67345 0H47.1931C48.4934 0 49.6311 0.401852 50.6063 1.20556C51.5815 2.00926 52.2548 3.08519 52.6263 4.43333L55.6912 14.9333C56.202 16.7481 56.2368 18.563 55.7956 20.3778C55.3545 22.1926 54.4838 23.7222 53.1835 24.9667ZM34.3765 22.5556C35.7231 22.5556 36.8609 22.063 37.7896 21.0778C38.7183 20.0926 39.0898 18.9 38.9041 17.5L37.1627 4.66667H30.1971V17.5C30.1971 18.8481 30.5918 20.0278 31.3813 21.0389C32.1707 22.05 33.1691 22.5556 34.3765 22.5556ZM21.3508 22.5556C22.6511 22.5556 23.7539 22.063 24.6595 21.0778C25.565 20.0926 26.0178 18.9 26.0178 17.5V4.66667H19.0522L17.3108 17.5C17.125 18.8481 17.4501 20.0278 18.286 21.0389C19.1218 22.05 20.1434 22.5556 21.3508 22.5556ZM8.67345 22.5556C9.78794 22.5556 10.7515 22.1278 11.5642 21.2722C12.3768 20.4167 12.8528 19.3667 12.9921 18.1222L14.8032 4.66667H7.83758L4.63341 16.0222C4.16904 17.6296 4.35479 19.1204 5.19066 20.4944C6.02653 21.8685 7.18746 22.5556 8.67345 22.5556ZM47.4718 22.5556C48.9578 22.5556 50.1303 21.8815 50.9894 20.5333C51.8485 19.1852 52.0458 17.6815 51.5815 16.0222L48.3773 4.66667H41.4117L43.2228 18.1222C43.3621 19.3667 43.8381 20.4167 44.6507 21.2722C45.4634 22.1278 46.4037 22.5556 47.4718 22.5556ZM7.14102 51.3333H49.0042V27.1444C49.0506 27.1963 48.8997 27.2222 48.5514 27.2222C48.2032 27.2222 47.8433 27.2222 47.4718 27.2222C46.3108 27.2222 45.208 26.95 44.1631 26.4056C43.1183 25.8611 42.085 25.0185 41.0634 23.8778C40.3204 24.9148 39.3917 25.7315 38.2772 26.3278C37.1627 26.9241 35.9321 27.2222 34.5854 27.2222C33.1923 27.2222 31.9966 27.0019 30.9982 26.5611C29.9998 26.1204 29.0362 25.3815 28.1074 24.3444C27.4109 25.2778 26.5286 25.9907 25.4605 26.4833C24.3925 26.9759 23.1851 27.2222 21.8384 27.2222C20.3989 27.2222 19.1218 26.937 18.0073 26.3667C16.8928 25.7963 15.9409 24.9667 15.1514 23.8778C14.037 24.9667 12.9457 25.7963 11.8776 26.3667C10.8096 26.937 9.74151 27.2222 8.67345 27.2222C8.34839 27.2222 8.03494 27.2222 7.73309 27.2222C7.43125 27.2222 7.23389 27.1963 7.14102 27.1444V51.3333ZM49.0042 51.3333H7.14102C7.23389 51.3333 7.43125 51.3333 7.73309 51.3333C8.03494 51.3333 8.34839 51.3333 8.67345 51.3333C9.46288 51.3333 10.4032 51.3333 11.4945 51.3333C12.5858 51.3333 13.8048 51.3333 15.1514 51.3333C15.5694 51.3333 16.0338 51.3333 16.5446 51.3333C17.0554 51.3333 17.601 51.3333 18.1815 51.3333C18.7619 51.3333 19.354 51.3333 19.9577 51.3333C20.5614 51.3333 21.1883 51.3333 21.8384 51.3333C22.3492 51.3333 22.8832 51.3333 23.4405 51.3333C23.9977 51.3333 24.555 51.3333 25.1122 51.3333C25.6695 51.3333 26.2035 51.3333 26.7143 51.3333C27.2251 51.3333 27.6895 51.3333 28.1074 51.3333C29.1291 51.3333 30.1507 51.3333 31.1723 51.3333C32.1939 51.3333 33.3316 51.3333 34.5854 51.3333C35.2355 51.3333 35.8741 51.3333 36.501 51.3333C37.1279 51.3333 37.7199 51.3333 38.2772 51.3333C38.8344 51.3333 39.3452 51.3333 39.8096 51.3333C40.274 51.3333 40.6919 51.3333 41.0634 51.3333C42.1315 51.3333 43.1995 51.3333 44.2676 51.3333C45.3356 51.3333 46.4037 51.3333 47.4718 51.3333C47.8433 51.3333 48.2032 51.3333 48.5514 51.3333C48.8997 51.3333 49.0506 51.3333 49.0042 51.3333Z" fill="#C4C4CC"/>
</svg>
