<svg width="48" height="56" viewBox="0 0 48 56" fill="none" xmlns="http://www.w3.org/2000/svg">
<path d="M4.72159 32.4211C4.72159 35.5158 5.42159 38.4263 6.82159 41.1526C8.22159 43.8789 10.1742 46.1509 12.6795 47.9684C12.483 47.3789 12.3356 46.7772 12.2374 46.1632C12.1391 45.5491 12.09 44.9474 12.09 44.3579C12.09 42.786 12.3847 41.3123 12.9742 39.9368C13.5637 38.5614 14.4233 37.3088 15.5532 36.1789L23.8795 28L32.2058 36.1789C33.3356 37.3088 34.1953 38.5614 34.7847 39.9368C35.3742 41.3123 35.669 42.786 35.669 44.3579C35.669 44.9474 35.6198 45.5491 35.5216 46.1632C35.4233 46.7772 35.276 47.3789 35.0795 47.9684C37.5847 46.1509 39.5374 43.8789 40.9374 41.1526C42.3374 38.4263 43.0374 35.5158 43.0374 32.4211C43.0374 29.7684 42.4725 27.1772 41.3426 24.6474C40.2128 22.1175 38.5918 19.7965 36.4795 17.6842C35.4479 18.4211 34.3672 18.9982 33.2374 19.4158C32.1076 19.8333 30.9777 20.0421 29.8479 20.0421C26.8514 20.0421 24.3707 19.0228 22.4058 16.9842C20.4409 14.9456 19.4584 12.3789 19.4584 9.28421V7.81053C17.1988 9.43158 15.1602 11.2246 13.3426 13.1895C11.5251 15.1544 9.97773 17.2053 8.70054 19.3421C7.42334 21.4789 6.44089 23.6649 5.75317 25.9C5.06545 28.1351 4.72159 30.3088 4.72159 32.4211ZM23.8795 34.1895L18.6479 39.3474C17.9602 40.0351 17.4321 40.7965 17.0637 41.6316C16.6953 42.4667 16.5111 43.3754 16.5111 44.3579C16.5111 46.3719 17.2233 48.0789 18.6479 49.4789C20.0725 50.8789 21.8163 51.5789 23.8795 51.5789C25.9426 51.5789 27.6865 50.8789 29.1111 49.4789C30.5356 48.0789 31.2479 46.3719 31.2479 44.3579C31.2479 43.3754 31.0637 42.4667 30.6953 41.6316C30.3269 40.7965 29.7988 40.0351 29.1111 39.3474L23.8795 34.1895ZM23.8795 0V9.72632C23.8795 11.3965 24.4567 12.7965 25.6111 13.9263C26.7654 15.0561 28.1777 15.6211 29.8479 15.6211C30.7321 15.6211 31.5549 15.4368 32.3163 15.0684C33.0777 14.7 33.7532 14.1474 34.3426 13.4105L35.669 11.7895C39.304 13.8526 42.1777 16.7263 44.29 20.4105C46.4023 24.0947 47.4584 28.0982 47.4584 32.4211C47.4584 39.0035 45.1742 44.5789 40.6058 49.1474C36.0374 53.7158 30.4619 56 23.8795 56C17.297 56 11.7216 53.7158 7.15317 49.1474C2.58475 44.5789 0.300537 39.0035 0.300537 32.4211C0.300537 26.1333 2.41282 20.0789 6.63738 14.2579C10.8619 8.43684 16.6093 3.68421 23.8795 0Z" fill="#C4C4CC"/>
</svg>
